  <svg
                  width="63"
                  height="57"
                  viewBox="0 0 63 57"
                  fill="none"
                  xmlns="http://www.w3.org/2000/svg"
                >
                  <path
                    d="M19.5442 20.8667C21.3548 20.8667 22.8227 19.3988 22.8227 17.5881C22.8227 15.7774 21.3548 14.3096 19.5442 14.3096C17.7335 14.3096 16.2656 15.7774 16.2656 17.5881C16.2656 19.3988 17.7335 20.8667 19.5442 20.8667Z"
                    fill="white"
                  />
                  <path
                    d="M31.437 20.8667C33.2477 20.8667 34.7155 19.3988 34.7155 17.5881C34.7155 15.7774 33.2477 14.3096 31.437 14.3096C29.6263 14.3096 28.1584 15.7774 28.1584 17.5881C28.1584 19.3988 29.6263 20.8667 31.437 20.8667Z"
                    fill="white"
                  />
                  <path
                    d="M43.3276 20.8667C45.1383 20.8667 46.6061 19.3988 46.6061 17.5881C46.6061 15.7774 45.1383 14.3096 43.3276 14.3096C41.5169 14.3096 40.0491 15.7774 40.0491 17.5881C40.0491 19.3988 41.5169 20.8667 43.3276 20.8667Z"
                    fill="white"
                  />
                  <path
                    d="M31.5358 40.4148C35.8148 40.4148 39.2837 36.946 39.2837 32.6669C39.2837 28.3878 35.8148 24.9189 31.5358 24.9189C27.2567 24.9189 23.7878 28.3878 23.7878 32.6669C23.7878 36.946 27.2567 40.4148 31.5358 40.4148Z"
                    stroke="white"
                    strokeWidth="3"
                    strokeMiterlimit="10"
                  />
                  <path
                    d="M18.9509 52.9999C18.9509 49.662 20.2769 46.4607 22.6372 44.1004C24.9976 41.7401 28.1988 40.4141 31.5368 40.4141C33.1898 40.4138 34.8266 40.7391 36.3538 41.3715C37.881 42.0039 39.2688 42.9309 40.4377 44.0996C41.6066 45.2684 42.5339 46.6559 43.1665 48.183C43.7991 49.7102 44.1247 51.347 44.1247 52.9999"
                    stroke="white"
                    strokeWidth="3"
                    strokeMiterlimit="10"
                  />
                  <path
                    d="M39.2826 32.6664H50.8757C52.2537 32.6664 53.5753 32.119 54.5497 31.1445C55.5241 30.1701 56.0715 28.8486 56.0715 27.4705V10.1873C56.0693 8.81079 55.5209 7.4914 54.5467 6.51884C53.5726 5.54627 52.2523 5 50.8757 5H12.1958C10.8178 5 9.49622 5.54739 8.52182 6.5218C7.54742 7.49621 7 8.81779 7 10.1958V27.4791C7 28.8571 7.54742 30.1787 8.52182 31.1531C9.49622 32.1275 10.8178 32.6749 12.1958 32.6749H14.3261L19.5368 37.9538V32.6749H23.7804"
                    stroke="white"
                    strokeWidth="3"
                    strokeMiterlimit="10"
                  />
                </svg>